<svg xmlns="http://www.w3.org/2000/svg" version="1.0" width="120px"
    viewBox="0 0 808.000000 811.000000" preserveAspectRatio="xMidYMid meet"
    style="&#10;fill: antiquewhite;&#10;margin-top: 25px;">

    <g transform="translate(0.000000,811.000000) scale(0.100000,-0.100000)" fill="#000000"
        stroke="none" style="&#10;    fill: #ff0008;&#10;">
        <path
            d="M3820 7763 c-358 -27 -787 -158 -1097 -335 -727 -415 -1205 -1095 -1344 -1912 -27 -156 -37 -494 -19 -662 14 -140 36 -199 92 -250 77 -69 73 -69 474 -72 l361 -3 94 113 c136 163 207 201 369 201 155 0 274 -72 336 -204 25 -53 35 -62 81 -84 71 -32 147 -105 182 -177 27 -52 37 -62 90 -89 36 -18 80 -52 109 -84 38 -41 63 -59 108 -75 75 -26 129 -65 176 -126 47 -61 68 -119 75 -210 7 -82 -8 -159 -43 -222 l-23 -43 34 -15 c133 -55 285 53 285 204 0 40 10 40 66 0 51 -36 128 -48 188 -28 72 24 135 115 136 198 0 49 9 52 55 16 44 -33 121 -56 160 -48 106 23 175 105 175 209 0 25 4 45 9 45 5 0 32 -16 60 -35 64 -42 108 -51 168 -34 120 33 188 175 135 279 -26 52 -1232 1520 -1248 1520 -8 0 -118 -59 -246 -132 -381 -215 -414 -228 -592 -228 -204 0 -347 69 -418 202 -20 37 -23 57 -23 153 0 94 3 117 24 163 23 51 23 53 6 72 -17 19 -32 20 -362 20 -273 0 -343 3 -343 13 0 20 87 166 159 268 295 416 754 720 1257 834 484 109 993 57 1422 -145 135 -64 292 -158 292 -176 0 -8 -27 -50 -60 -95 -33 -44 -60 -91 -60 -104 0 -34 53 -75 98 -75 20 0 210 -9 420 -20 238 -12 393 -15 407 -10 13 5 31 22 39 38 14 27 9 42 -135 416 -82 213 -156 400 -164 416 -15 30 -48 45 -82 38 -10 -2 -47 -41 -82 -88 -35 -47 -70 -86 -77 -88 -8 -2 -57 24 -110 57 -339 213 -742 351 -1143 391 -95 9 -364 11 -471 3z"
            style="&#10;    fill: #3385d9;&#10;" />
        <path
            d="M4015 6595 c-82 -18 -161 -49 -227 -89 -103 -62 -784 -585 -796 -611 -7 -14 -12 -41 -12 -60 0 -74 37 -109 145 -140 70 -21 178 -15 247 12 24 9 160 82 303 162 143 79 287 160 320 178 62 33 119 42 155 23 10 -5 316 -372 681 -815 365 -443 669 -805 677 -805 8 0 28 12 46 27 59 50 78 53 326 53 216 0 231 -1 226 -17 -3 -10 -15 -48 -26 -86 -170 -555 -622 -1059 -1169 -1302 -307 -137 -559 -190 -901 -189 -176 0 -225 4 -351 27 -322 58 -586 164 -847 339 -73 49 -101 73 -94 81 5 7 37 47 71 90 67 86 73 112 39 152 -23 25 -28 26 -455 70 -299 31 -440 42 -457 35 -27 -10 -46 -38 -46 -68 0 -11 58 -202 130 -424 106 -329 134 -407 155 -425 49 -42 82 -25 170 91 28 36 53 65 57 66 3 0 69 -42 146 -94 271 -181 565 -311 877 -386 216 -53 333 -65 625 -65 300 0 386 10 642 74 649 162 1201 549 1577 1106 241 358 396 785 441 1220 15 144 13 440 -4 585 -25 207 -83 455 -126 540 -25 50 -99 114 -148 128 -27 8 -151 12 -393 12 -275 0 -368 4 -416 15 -34 8 -333 119 -665 246 -366 140 -632 236 -676 245 -89 17 -167 17 -247 -1z"
            style="&#10;    fill: #1b6dc1;&#10;" />
        <path
            d="M2687 4635 c-49 -17 -64 -30 -157 -145 -101 -125 -113 -149 -108 -217 5 -59 23 -90 80 -136 54 -44 105 -49 196 -22 21 7 22 4 22 -37 0 -60 34 -122 89 -162 38 -27 50 -31 104 -30 34 1 71 3 82 5 17 3 21 -3 25 -41 8 -62 31 -101 81 -136 34 -24 53 -29 98 -29 31 0 68 4 82 8 25 8 28 6 39 -30 23 -72 104 -132 179 -133 113 -1 232 164 201 279 -15 55 -61 106 -115 127 -42 16 -62 15 -122 -2 -20 -5 -23 -3 -23 22 0 46 -39 113 -83 142 -35 23 -50 27 -113 26 l-73 -1 5 66 c4 56 2 72 -18 106 -45 77 -124 109 -204 82 -54 -18 -63 -8 -44 48 22 68 -7 150 -68 189 -47 30 -106 39 -155 21z"
            style="&#10;    fill: #1b6dc1;&#10;" />
    </g>
</svg>